<?xml version="1.0" encoding="UTF-8" standalone="no"?><svg xmlns="http://www.w3.org/2000/svg" xmlns:xlink="http://www.w3.org/1999/xlink" contentScriptType="application/ecmascript" contentStyleType="text/css" height="194px" preserveAspectRatio="none" style="width:790px;height:194px;" version="1.1" viewBox="0 0 790 194" width="790px" zoomAndPan="magnify"><defs><filter height="300%" id="fh6qay4xpdwyt" width="300%" x="-1" y="-1"><feGaussianBlur result="blurOut" stdDeviation="2.0"/><feColorMatrix in="blurOut" result="blurOut2" type="matrix" values="0 0 0 0 0 0 0 0 0 0 0 0 0 0 0 0 0 0 .4 0"/><feOffset dx="4.0" dy="4.0" in="blurOut2" result="blurOut3"/><feBlend in="SourceGraphic" in2="blurOut3" mode="normal"/></filter></defs><g><!--MD5=[594580dc27c3cbf01810b38146d5e382]
class Impl--><rect fill="#FEFECE" filter="url(#fh6qay4xpdwyt)" height="48" id="Impl" style="stroke: #A80036; stroke-width: 1.5;" width="56" x="18" y="135"/><ellipse cx="33" cy="151" fill="#ADD1B2" rx="11" ry="11" style="stroke: #A80036; stroke-width: 1.0;"/><path d="M31.5781,156.3594 Q29.7188,156.3594 28.625,154.9688 Q27.5313,153.5781 27.5313,150.5938 Q27.5313,148.0625 28.6953,146.4063 Q29.8594,144.75 31.8438,144.75 Q33.3125,144.75 33.7813,144.875 Q34.25,145.0781 34.25,145.0781 Q34.25,145.0781 34.25,145.0078 Q34.25,144.9375 34.8594,144.0156 L35.9063,147.6719 L34.5781,148.0781 Q34.1094,146.5313 33.4453,145.8672 Q32.7813,145.2031 31.7188,145.2031 Q31.3281,145.2031 30.5625,146.7344 Q29.7969,148.2656 29.7969,150.5156 Q29.7969,152.9844 30.4609,154.375 Q31.125,155.7656 31.6563,155.7656 Q32.7188,155.7656 33.4766,155 Q34.2344,154.2344 34.5781,152.5781 L35.9063,153.1719 Q35.5781,154.5781 34.6797,155.4688 Q33.7813,156.3594 31.5781,156.3594 Z "/><text fill="#000000" font-family="sans-serif" font-size="12" lengthAdjust="spacingAndGlyphs" textLength="24" x="47" y="156.5576">Impl</text><line style="stroke: #A80036; stroke-width: 1.5;" x1="19" x2="73" y1="167" y2="167"/><line style="stroke: #A80036; stroke-width: 1.5;" x1="19" x2="73" y1="175" y2="175"/><!--MD5=[713bb781b1b579324fb36ad0db6385cf]
class Interface--><rect fill="#FEFECE" filter="url(#fh6qay4xpdwyt)" height="48" id="Interface" style="stroke: #A80036; stroke-width: 1.5;" width="80" x="6" y="8"/><ellipse cx="21" cy="24" fill="#B4A7E5" rx="11" ry="11" style="stroke: #A80036; stroke-width: 1.0;"/><path d="M17.5938,18.2813 L17.5938,17.875 L23.9063,17.875 L23.9063,18.2813 L21.375,18.2813 Q21.375,18.2813 21.5234,18.4141 Q21.6719,18.5469 21.6719,18.8125 L21.6719,28.2969 Q21.6719,28.5625 21.8906,28.6953 Q22.1094,28.8281 22.1094,28.8281 L23.9063,28.8281 L23.9063,29.2344 L17.5938,29.2344 L17.5938,28.8281 L19.125,28.8281 Q19.4531,28.8281 19.5859,28.6953 Q19.7188,28.5625 19.7188,28.2969 L19.7188,18.8125 Q19.7188,18.5469 19.5859,18.4141 Q19.4531,18.2813 19.125,18.2813 L17.5938,18.2813 Z "/><text fill="#000000" font-family="sans-serif" font-size="12" font-style="italic" lengthAdjust="spacingAndGlyphs" textLength="48" x="35" y="29.5576">Interface</text><line style="stroke: #A80036; stroke-width: 1.5;" x1="7" x2="85" y1="40" y2="40"/><line style="stroke: #A80036; stroke-width: 1.5;" x1="7" x2="85" y1="48" y2="48"/><!--MD5=[99fa6df29652c06c355c8e17980c1541]
class Dep1--><rect fill="#FEFECE" filter="url(#fh6qay4xpdwyt)" height="48" id="Dep1" style="stroke: #A80036; stroke-width: 1.5;" width="62" x="121" y="135"/><ellipse cx="136" cy="151" fill="#ADD1B2" rx="11" ry="11" style="stroke: #A80036; stroke-width: 1.0;"/><path d="M134.5781,156.3594 Q132.7188,156.3594 131.625,154.9688 Q130.5313,153.5781 130.5313,150.5938 Q130.5313,148.0625 131.6953,146.4063 Q132.8594,144.75 134.8438,144.75 Q136.3125,144.75 136.7813,144.875 Q137.25,145.0781 137.25,145.0781 Q137.25,145.0781 137.25,145.0078 Q137.25,144.9375 137.8594,144.0156 L138.9063,147.6719 L137.5781,148.0781 Q137.1094,146.5313 136.4453,145.8672 Q135.7813,145.2031 134.7188,145.2031 Q134.3281,145.2031 133.5625,146.7344 Q132.7969,148.2656 132.7969,150.5156 Q132.7969,152.9844 133.4609,154.375 Q134.125,155.7656 134.6563,155.7656 Q135.7188,155.7656 136.4766,155 Q137.2344,154.2344 137.5781,152.5781 L138.9063,153.1719 Q138.5781,154.5781 137.6797,155.4688 Q136.7813,156.3594 134.5781,156.3594 Z "/><text fill="#000000" font-family="sans-serif" font-size="12" lengthAdjust="spacingAndGlyphs" textLength="30" x="150" y="156.5576">Dep1</text><line style="stroke: #A80036; stroke-width: 1.5;" x1="122" x2="182" y1="167" y2="167"/><line style="stroke: #A80036; stroke-width: 1.5;" x1="122" x2="182" y1="175" y2="175"/><!--MD5=[35beb729d099babc3c2d680ada25d494]
class Dep2--><rect fill="#FEFECE" filter="url(#fh6qay4xpdwyt)" height="48" id="Dep2" style="stroke: #A80036; stroke-width: 1.5;" width="62" x="121" y="8"/><ellipse cx="136" cy="24" fill="#ADD1B2" rx="11" ry="11" style="stroke: #A80036; stroke-width: 1.0;"/><path d="M134.5781,29.3594 Q132.7188,29.3594 131.625,27.9688 Q130.5313,26.5781 130.5313,23.5938 Q130.5313,21.0625 131.6953,19.4063 Q132.8594,17.75 134.8438,17.75 Q136.3125,17.75 136.7813,17.875 Q137.25,18.0781 137.25,18.0781 Q137.25,18.0781 137.25,18.0078 Q137.25,17.9375 137.8594,17.0156 L138.9063,20.6719 L137.5781,21.0781 Q137.1094,19.5313 136.4453,18.8672 Q135.7813,18.2031 134.7188,18.2031 Q134.3281,18.2031 133.5625,19.7344 Q132.7969,21.2656 132.7969,23.5156 Q132.7969,25.9844 133.4609,27.375 Q134.125,28.7656 134.6563,28.7656 Q135.7188,28.7656 136.4766,28 Q137.2344,27.2344 137.5781,25.5781 L138.9063,26.1719 Q138.5781,27.5781 137.6797,28.4688 Q136.7813,29.3594 134.5781,29.3594 Z "/><text fill="#000000" font-family="sans-serif" font-size="12" lengthAdjust="spacingAndGlyphs" textLength="30" x="150" y="29.5576">Dep2</text><line style="stroke: #A80036; stroke-width: 1.5;" x1="122" x2="182" y1="40" y2="40"/><line style="stroke: #A80036; stroke-width: 1.5;" x1="122" x2="182" y1="48" y2="48"/><!--MD5=[e9dbe8602fd6f9f2c389a3d7c7075451]
class Ass1--><rect fill="#FEFECE" filter="url(#fh6qay4xpdwyt)" height="48" id="Ass1" style="stroke: #A80036; stroke-width: 1.5;" width="60" x="218" y="135"/><ellipse cx="233" cy="151" fill="#ADD1B2" rx="11" ry="11" style="stroke: #A80036; stroke-width: 1.0;"/><path d="M231.5781,156.3594 Q229.7188,156.3594 228.625,154.9688 Q227.5313,153.5781 227.5313,150.5938 Q227.5313,148.0625 228.6953,146.4063 Q229.8594,144.75 231.8438,144.75 Q233.3125,144.75 233.7813,144.875 Q234.25,145.0781 234.25,145.0781 Q234.25,145.0781 234.25,145.0078 Q234.25,144.9375 234.8594,144.0156 L235.9063,147.6719 L234.5781,148.0781 Q234.1094,146.5313 233.4453,145.8672 Q232.7813,145.2031 231.7188,145.2031 Q231.3281,145.2031 230.5625,146.7344 Q229.7969,148.2656 229.7969,150.5156 Q229.7969,152.9844 230.4609,154.375 Q231.125,155.7656 231.6563,155.7656 Q232.7188,155.7656 233.4766,155 Q234.2344,154.2344 234.5781,152.5781 L235.9063,153.1719 Q235.5781,154.5781 234.6797,155.4688 Q233.7813,156.3594 231.5781,156.3594 Z "/><text fill="#000000" font-family="sans-serif" font-size="12" lengthAdjust="spacingAndGlyphs" textLength="28" x="247" y="156.5576">Ass1</text><line style="stroke: #A80036; stroke-width: 1.5;" x1="219" x2="277" y1="167" y2="167"/><line style="stroke: #A80036; stroke-width: 1.5;" x1="219" x2="277" y1="175" y2="175"/><!--MD5=[81d5cfaca477951f4f3aba69ce35cf92]
class Ass2--><rect fill="#FEFECE" filter="url(#fh6qay4xpdwyt)" height="48" id="Ass2" style="stroke: #A80036; stroke-width: 1.5;" width="60" x="218" y="8"/><ellipse cx="233" cy="24" fill="#ADD1B2" rx="11" ry="11" style="stroke: #A80036; stroke-width: 1.0;"/><path d="M231.5781,29.3594 Q229.7188,29.3594 228.625,27.9688 Q227.5313,26.5781 227.5313,23.5938 Q227.5313,21.0625 228.6953,19.4063 Q229.8594,17.75 231.8438,17.75 Q233.3125,17.75 233.7813,17.875 Q234.25,18.0781 234.25,18.0781 Q234.25,18.0781 234.25,18.0078 Q234.25,17.9375 234.8594,17.0156 L235.9063,20.6719 L234.5781,21.0781 Q234.1094,19.5313 233.4453,18.8672 Q232.7813,18.2031 231.7188,18.2031 Q231.3281,18.2031 230.5625,19.7344 Q229.7969,21.2656 229.7969,23.5156 Q229.7969,25.9844 230.4609,27.375 Q231.125,28.7656 231.6563,28.7656 Q232.7188,28.7656 233.4766,28 Q234.2344,27.2344 234.5781,25.5781 L235.9063,26.1719 Q235.5781,27.5781 234.6797,28.4688 Q233.7813,29.3594 231.5781,29.3594 Z "/><text fill="#000000" font-family="sans-serif" font-size="12" lengthAdjust="spacingAndGlyphs" textLength="28" x="247" y="29.5576">Ass2</text><line style="stroke: #A80036; stroke-width: 1.5;" x1="219" x2="277" y1="40" y2="40"/><line style="stroke: #A80036; stroke-width: 1.5;" x1="219" x2="277" y1="48" y2="48"/><!--MD5=[4e02ba3dafb7903244a5c9c13d59801a]
class Ass3--><rect fill="#FEFECE" filter="url(#fh6qay4xpdwyt)" height="48" id="Ass3" style="stroke: #A80036; stroke-width: 1.5;" width="60" x="313" y="135"/><ellipse cx="328" cy="151" fill="#ADD1B2" rx="11" ry="11" style="stroke: #A80036; stroke-width: 1.0;"/><path d="M326.5781,156.3594 Q324.7188,156.3594 323.625,154.9688 Q322.5313,153.5781 322.5313,150.5938 Q322.5313,148.0625 323.6953,146.4063 Q324.8594,144.75 326.8438,144.75 Q328.3125,144.75 328.7813,144.875 Q329.25,145.0781 329.25,145.0781 Q329.25,145.0781 329.25,145.0078 Q329.25,144.9375 329.8594,144.0156 L330.9063,147.6719 L329.5781,148.0781 Q329.1094,146.5313 328.4453,145.8672 Q327.7813,145.2031 326.7188,145.2031 Q326.3281,145.2031 325.5625,146.7344 Q324.7969,148.2656 324.7969,150.5156 Q324.7969,152.9844 325.4609,154.375 Q326.125,155.7656 326.6563,155.7656 Q327.7188,155.7656 328.4766,155 Q329.2344,154.2344 329.5781,152.5781 L330.9063,153.1719 Q330.5781,154.5781 329.6797,155.4688 Q328.7813,156.3594 326.5781,156.3594 Z "/><text fill="#000000" font-family="sans-serif" font-size="12" lengthAdjust="spacingAndGlyphs" textLength="28" x="342" y="156.5576">Ass3</text><line style="stroke: #A80036; stroke-width: 1.5;" x1="314" x2="372" y1="167" y2="167"/><line style="stroke: #A80036; stroke-width: 1.5;" x1="314" x2="372" y1="175" y2="175"/><!--MD5=[bc07faf625dc455ae1b93ba36069929f]
class Ass4--><rect fill="#FEFECE" filter="url(#fh6qay4xpdwyt)" height="48" id="Ass4" style="stroke: #A80036; stroke-width: 1.5;" width="60" x="313" y="8"/><ellipse cx="328" cy="24" fill="#ADD1B2" rx="11" ry="11" style="stroke: #A80036; stroke-width: 1.0;"/><path d="M326.5781,29.3594 Q324.7188,29.3594 323.625,27.9688 Q322.5313,26.5781 322.5313,23.5938 Q322.5313,21.0625 323.6953,19.4063 Q324.8594,17.75 326.8438,17.75 Q328.3125,17.75 328.7813,17.875 Q329.25,18.0781 329.25,18.0781 Q329.25,18.0781 329.25,18.0078 Q329.25,17.9375 329.8594,17.0156 L330.9063,20.6719 L329.5781,21.0781 Q329.1094,19.5313 328.4453,18.8672 Q327.7813,18.2031 326.7188,18.2031 Q326.3281,18.2031 325.5625,19.7344 Q324.7969,21.2656 324.7969,23.5156 Q324.7969,25.9844 325.4609,27.375 Q326.125,28.7656 326.6563,28.7656 Q327.7188,28.7656 328.4766,28 Q329.2344,27.2344 329.5781,25.5781 L330.9063,26.1719 Q330.5781,27.5781 329.6797,28.4688 Q328.7813,29.3594 326.5781,29.3594 Z "/><text fill="#000000" font-family="sans-serif" font-size="12" lengthAdjust="spacingAndGlyphs" textLength="28" x="342" y="29.5576">Ass4</text><line style="stroke: #A80036; stroke-width: 1.5;" x1="314" x2="372" y1="40" y2="40"/><line style="stroke: #A80036; stroke-width: 1.5;" x1="314" x2="372" y1="48" y2="48"/><!--MD5=[d1896467cce792ae2957a12348751336]
class Ass5--><rect fill="#FEFECE" filter="url(#fh6qay4xpdwyt)" height="48" id="Ass5" style="stroke: #A80036; stroke-width: 1.5;" width="60" x="408" y="135"/><ellipse cx="423" cy="151" fill="#ADD1B2" rx="11" ry="11" style="stroke: #A80036; stroke-width: 1.0;"/><path d="M421.5781,156.3594 Q419.7188,156.3594 418.625,154.9688 Q417.5313,153.5781 417.5313,150.5938 Q417.5313,148.0625 418.6953,146.4063 Q419.8594,144.75 421.8438,144.75 Q423.3125,144.75 423.7813,144.875 Q424.25,145.0781 424.25,145.0781 Q424.25,145.0781 424.25,145.0078 Q424.25,144.9375 424.8594,144.0156 L425.9063,147.6719 L424.5781,148.0781 Q424.1094,146.5313 423.4453,145.8672 Q422.7813,145.2031 421.7188,145.2031 Q421.3281,145.2031 420.5625,146.7344 Q419.7969,148.2656 419.7969,150.5156 Q419.7969,152.9844 420.4609,154.375 Q421.125,155.7656 421.6563,155.7656 Q422.7188,155.7656 423.4766,155 Q424.2344,154.2344 424.5781,152.5781 L425.9063,153.1719 Q425.5781,154.5781 424.6797,155.4688 Q423.7813,156.3594 421.5781,156.3594 Z "/><text fill="#000000" font-family="sans-serif" font-size="12" lengthAdjust="spacingAndGlyphs" textLength="28" x="437" y="156.5576">Ass5</text><line style="stroke: #A80036; stroke-width: 1.5;" x1="409" x2="467" y1="167" y2="167"/><line style="stroke: #A80036; stroke-width: 1.5;" x1="409" x2="467" y1="175" y2="175"/><!--MD5=[11accc275ae237662050588edfd3d519]
class Ass6--><rect fill="#FEFECE" filter="url(#fh6qay4xpdwyt)" height="48" id="Ass6" style="stroke: #A80036; stroke-width: 1.5;" width="60" x="408" y="8"/><ellipse cx="423" cy="24" fill="#ADD1B2" rx="11" ry="11" style="stroke: #A80036; stroke-width: 1.0;"/><path d="M421.5781,29.3594 Q419.7188,29.3594 418.625,27.9688 Q417.5313,26.5781 417.5313,23.5938 Q417.5313,21.0625 418.6953,19.4063 Q419.8594,17.75 421.8438,17.75 Q423.3125,17.75 423.7813,17.875 Q424.25,18.0781 424.25,18.0781 Q424.25,18.0781 424.25,18.0078 Q424.25,17.9375 424.8594,17.0156 L425.9063,20.6719 L424.5781,21.0781 Q424.1094,19.5313 423.4453,18.8672 Q422.7813,18.2031 421.7188,18.2031 Q421.3281,18.2031 420.5625,19.7344 Q419.7969,21.2656 419.7969,23.5156 Q419.7969,25.9844 420.4609,27.375 Q421.125,28.7656 421.6563,28.7656 Q422.7188,28.7656 423.4766,28 Q424.2344,27.2344 424.5781,25.5781 L425.9063,26.1719 Q425.5781,27.5781 424.6797,28.4688 Q423.7813,29.3594 421.5781,29.3594 Z "/><text fill="#000000" font-family="sans-serif" font-size="12" lengthAdjust="spacingAndGlyphs" textLength="28" x="437" y="29.5576">Ass6</text><line style="stroke: #A80036; stroke-width: 1.5;" x1="409" x2="467" y1="40" y2="40"/><line style="stroke: #A80036; stroke-width: 1.5;" x1="409" x2="467" y1="48" y2="48"/><!--MD5=[ba860e13c1144ac8ce973e0ec5315c69]
class Agg1--><rect fill="#FEFECE" filter="url(#fh6qay4xpdwyt)" height="48" id="Agg1" style="stroke: #A80036; stroke-width: 1.5;" width="60" x="515" y="135"/><ellipse cx="530" cy="151" fill="#ADD1B2" rx="11" ry="11" style="stroke: #A80036; stroke-width: 1.0;"/><path d="M528.5781,156.3594 Q526.7188,156.3594 525.625,154.9688 Q524.5313,153.5781 524.5313,150.5938 Q524.5313,148.0625 525.6953,146.4063 Q526.8594,144.75 528.8438,144.75 Q530.3125,144.75 530.7813,144.875 Q531.25,145.0781 531.25,145.0781 Q531.25,145.0781 531.25,145.0078 Q531.25,144.9375 531.8594,144.0156 L532.9063,147.6719 L531.5781,148.0781 Q531.1094,146.5313 530.4453,145.8672 Q529.7813,145.2031 528.7188,145.2031 Q528.3281,145.2031 527.5625,146.7344 Q526.7969,148.2656 526.7969,150.5156 Q526.7969,152.9844 527.4609,154.375 Q528.125,155.7656 528.6563,155.7656 Q529.7188,155.7656 530.4766,155 Q531.2344,154.2344 531.5781,152.5781 L532.9063,153.1719 Q532.5781,154.5781 531.6797,155.4688 Q530.7813,156.3594 528.5781,156.3594 Z "/><text fill="#000000" font-family="sans-serif" font-size="12" lengthAdjust="spacingAndGlyphs" textLength="28" x="544" y="156.5576">Agg1</text><line style="stroke: #A80036; stroke-width: 1.5;" x1="516" x2="574" y1="167" y2="167"/><line style="stroke: #A80036; stroke-width: 1.5;" x1="516" x2="574" y1="175" y2="175"/><!--MD5=[9c4a5b72bb63e31b8996510681f15ff9]
class Agg2--><rect fill="#FEFECE" filter="url(#fh6qay4xpdwyt)" height="48" id="Agg2" style="stroke: #A80036; stroke-width: 1.5;" width="60" x="515" y="8"/><ellipse cx="530" cy="24" fill="#ADD1B2" rx="11" ry="11" style="stroke: #A80036; stroke-width: 1.0;"/><path d="M528.5781,29.3594 Q526.7188,29.3594 525.625,27.9688 Q524.5313,26.5781 524.5313,23.5938 Q524.5313,21.0625 525.6953,19.4063 Q526.8594,17.75 528.8438,17.75 Q530.3125,17.75 530.7813,17.875 Q531.25,18.0781 531.25,18.0781 Q531.25,18.0781 531.25,18.0078 Q531.25,17.9375 531.8594,17.0156 L532.9063,20.6719 L531.5781,21.0781 Q531.1094,19.5313 530.4453,18.8672 Q529.7813,18.2031 528.7188,18.2031 Q528.3281,18.2031 527.5625,19.7344 Q526.7969,21.2656 526.7969,23.5156 Q526.7969,25.9844 527.4609,27.375 Q528.125,28.7656 528.6563,28.7656 Q529.7188,28.7656 530.4766,28 Q531.2344,27.2344 531.5781,25.5781 L532.9063,26.1719 Q532.5781,27.5781 531.6797,28.4688 Q530.7813,29.3594 528.5781,29.3594 Z "/><text fill="#000000" font-family="sans-serif" font-size="12" lengthAdjust="spacingAndGlyphs" textLength="28" x="544" y="29.5576">Agg2</text><line style="stroke: #A80036; stroke-width: 1.5;" x1="516" x2="574" y1="40" y2="40"/><line style="stroke: #A80036; stroke-width: 1.5;" x1="516" x2="574" y1="48" y2="48"/><!--MD5=[a7e04341b23a84550e0f867867b806ad]
class Com1--><rect fill="#FEFECE" filter="url(#fh6qay4xpdwyt)" height="48" id="Com1" style="stroke: #A80036; stroke-width: 1.5;" width="66" x="610" y="135"/><ellipse cx="625" cy="151" fill="#ADD1B2" rx="11" ry="11" style="stroke: #A80036; stroke-width: 1.0;"/><path d="M623.5781,156.3594 Q621.7188,156.3594 620.625,154.9688 Q619.5313,153.5781 619.5313,150.5938 Q619.5313,148.0625 620.6953,146.4063 Q621.8594,144.75 623.8438,144.75 Q625.3125,144.75 625.7813,144.875 Q626.25,145.0781 626.25,145.0781 Q626.25,145.0781 626.25,145.0078 Q626.25,144.9375 626.8594,144.0156 L627.9063,147.6719 L626.5781,148.0781 Q626.1094,146.5313 625.4453,145.8672 Q624.7813,145.2031 623.7188,145.2031 Q623.3281,145.2031 622.5625,146.7344 Q621.7969,148.2656 621.7969,150.5156 Q621.7969,152.9844 622.4609,154.375 Q623.125,155.7656 623.6563,155.7656 Q624.7188,155.7656 625.4766,155 Q626.2344,154.2344 626.5781,152.5781 L627.9063,153.1719 Q627.5781,154.5781 626.6797,155.4688 Q625.7813,156.3594 623.5781,156.3594 Z "/><text fill="#000000" font-family="sans-serif" font-size="12" lengthAdjust="spacingAndGlyphs" textLength="34" x="639" y="156.5576">Com1</text><line style="stroke: #A80036; stroke-width: 1.5;" x1="611" x2="675" y1="167" y2="167"/><line style="stroke: #A80036; stroke-width: 1.5;" x1="611" x2="675" y1="175" y2="175"/><!--MD5=[0a19f7321f3a1d39e303dccd4f0b07d0]
class Com2--><rect fill="#FEFECE" filter="url(#fh6qay4xpdwyt)" height="48" id="Com2" style="stroke: #A80036; stroke-width: 1.5;" width="66" x="610" y="8"/><ellipse cx="625" cy="24" fill="#ADD1B2" rx="11" ry="11" style="stroke: #A80036; stroke-width: 1.0;"/><path d="M623.5781,29.3594 Q621.7188,29.3594 620.625,27.9688 Q619.5313,26.5781 619.5313,23.5938 Q619.5313,21.0625 620.6953,19.4063 Q621.8594,17.75 623.8438,17.75 Q625.3125,17.75 625.7813,17.875 Q626.25,18.0781 626.25,18.0781 Q626.25,18.0781 626.25,18.0078 Q626.25,17.9375 626.8594,17.0156 L627.9063,20.6719 L626.5781,21.0781 Q626.1094,19.5313 625.4453,18.8672 Q624.7813,18.2031 623.7188,18.2031 Q623.3281,18.2031 622.5625,19.7344 Q621.7969,21.2656 621.7969,23.5156 Q621.7969,25.9844 622.4609,27.375 Q623.125,28.7656 623.6563,28.7656 Q624.7188,28.7656 625.4766,28 Q626.2344,27.2344 626.5781,25.5781 L627.9063,26.1719 Q627.5781,27.5781 626.6797,28.4688 Q625.7813,29.3594 623.5781,29.3594 Z "/><text fill="#000000" font-family="sans-serif" font-size="12" lengthAdjust="spacingAndGlyphs" textLength="34" x="639" y="29.5576">Com2</text><line style="stroke: #A80036; stroke-width: 1.5;" x1="611" x2="675" y1="40" y2="40"/><line style="stroke: #A80036; stroke-width: 1.5;" x1="611" x2="675" y1="48" y2="48"/><!--MD5=[cf9bc73d4b319b8f5d50999aecc13d13]
class Parent--><rect fill="#FEFECE" filter="url(#fh6qay4xpdwyt)" height="48" id="Parent" style="stroke: #A80036; stroke-width: 1.5;" width="68" x="711" y="8"/><ellipse cx="726" cy="24" fill="#ADD1B2" rx="11" ry="11" style="stroke: #A80036; stroke-width: 1.0;"/><path d="M724.5781,29.3594 Q722.7188,29.3594 721.625,27.9688 Q720.5313,26.5781 720.5313,23.5938 Q720.5313,21.0625 721.6953,19.4063 Q722.8594,17.75 724.8438,17.75 Q726.3125,17.75 726.7813,17.875 Q727.25,18.0781 727.25,18.0781 Q727.25,18.0781 727.25,18.0078 Q727.25,17.9375 727.8594,17.0156 L728.9063,20.6719 L727.5781,21.0781 Q727.1094,19.5313 726.4453,18.8672 Q725.7813,18.2031 724.7188,18.2031 Q724.3281,18.2031 723.5625,19.7344 Q722.7969,21.2656 722.7969,23.5156 Q722.7969,25.9844 723.4609,27.375 Q724.125,28.7656 724.6563,28.7656 Q725.7188,28.7656 726.4766,28 Q727.2344,27.2344 727.5781,25.5781 L728.9063,26.1719 Q728.5781,27.5781 727.6797,28.4688 Q726.7813,29.3594 724.5781,29.3594 Z "/><text fill="#000000" font-family="sans-serif" font-size="12" lengthAdjust="spacingAndGlyphs" textLength="36" x="740" y="29.5576">Parent</text><line style="stroke: #A80036; stroke-width: 1.5;" x1="712" x2="778" y1="40" y2="40"/><line style="stroke: #A80036; stroke-width: 1.5;" x1="712" x2="778" y1="48" y2="48"/><!--MD5=[1e0c2afbef7690ea168eeab2bc2d2b4f]
class Sub--><rect fill="#FEFECE" filter="url(#fh6qay4xpdwyt)" height="48" id="Sub" style="stroke: #A80036; stroke-width: 1.5;" width="54" x="718" y="135"/><ellipse cx="733" cy="151" fill="#ADD1B2" rx="11" ry="11" style="stroke: #A80036; stroke-width: 1.0;"/><path d="M731.5781,156.3594 Q729.7188,156.3594 728.625,154.9688 Q727.5313,153.5781 727.5313,150.5938 Q727.5313,148.0625 728.6953,146.4063 Q729.8594,144.75 731.8438,144.75 Q733.3125,144.75 733.7813,144.875 Q734.25,145.0781 734.25,145.0781 Q734.25,145.0781 734.25,145.0078 Q734.25,144.9375 734.8594,144.0156 L735.9063,147.6719 L734.5781,148.0781 Q734.1094,146.5313 733.4453,145.8672 Q732.7813,145.2031 731.7188,145.2031 Q731.3281,145.2031 730.5625,146.7344 Q729.7969,148.2656 729.7969,150.5156 Q729.7969,152.9844 730.4609,154.375 Q731.125,155.7656 731.6563,155.7656 Q732.7188,155.7656 733.4766,155 Q734.2344,154.2344 734.5781,152.5781 L735.9063,153.1719 Q735.5781,154.5781 734.6797,155.4688 Q733.7813,156.3594 731.5781,156.3594 Z "/><text fill="#000000" font-family="sans-serif" font-size="12" lengthAdjust="spacingAndGlyphs" textLength="22" x="747" y="156.5576">Sub</text><line style="stroke: #A80036; stroke-width: 1.5;" x1="719" x2="771" y1="167" y2="167"/><line style="stroke: #A80036; stroke-width: 1.5;" x1="719" x2="771" y1="175" y2="175"/><!--MD5=[31ca82a30b52bfcc20ca47a5c89395ad]
reverse link Interface to Impl--><path d="M46,76.406 C46,96.0752 46,118.5361 46,134.9058 " fill="none" id="Interface&lt;-Impl" style="stroke: #A80036; stroke-width: 1.0; stroke-dasharray: 7.0,7.0;"/><polygon fill="none" points="39.0001,76.219,46,56.219,53.0001,76.219,39.0001,76.219" style="stroke: #A80036; stroke-width: 1.0;"/><text fill="#000000" font-family="sans-serif" font-size="13" lengthAdjust="spacingAndGlyphs" textLength="26" x="47" y="101.8979">实现</text><!--MD5=[87c0f4ab77d7485d6bde5edf6a19070d]
reverse link Dep2 to Dep1--><path d="M152,61.396 C152,83.6286 152,114.1591 152,134.9058 " fill="none" id="Dep2&lt;-Dep1" style="stroke: #A80036; stroke-width: 1.0; stroke-dasharray: 7.0,7.0;"/><polygon fill="#A80036" points="152,56.219,148,65.219,152,61.219,156,65.219,152,56.219" style="stroke: #A80036; stroke-width: 1.0;"/><text fill="#000000" font-family="sans-serif" font-size="13" lengthAdjust="spacingAndGlyphs" textLength="26" x="153" y="101.8979">依赖</text><!--MD5=[0117139bf4e0a75f54e163c5413a756d]
reverse link Ass2 to Ass1--><path d="M246.61,61.156 C246.109,74.452 245.727,90.5409 246,105 C246.184,114.7587 246.559,125.5227 246.934,134.7864 " fill="none" id="Ass2&lt;-Ass1" style="stroke: #A80036; stroke-width: 1.0;"/><polygon fill="#A80036" points="246.814,56.02,242.4572,64.8528,246.614,61.016,250.4508,65.1728,246.814,56.02" style="stroke: #A80036; stroke-width: 1.0;"/><text fill="#000000" font-family="sans-serif" font-size="13" lengthAdjust="spacingAndGlyphs" textLength="52" x="247" y="101.8979">单向依赖</text><!--MD5=[c1e4eae207e0a836941015848a6aa0d2]
link Ass4 to Ass3--><path d="M341.814,56.02 C341.222,70.152 340.691,88.6216 341,105 C341.184,114.7587 341.559,125.5227 341.934,134.7864 " fill="none" id="Ass4-Ass3" style="stroke: #A80036; stroke-width: 1.0;"/><text fill="#000000" font-family="sans-serif" font-size="13" lengthAdjust="spacingAndGlyphs" textLength="52" x="342" y="101.8979">双向依赖</text><!--MD5=[563175f2fa2acfbd8dbfd2392783f907]
reverse link Ass6 to Ass5--><path d="M436.087,61.559 C435.637,69.471 435.224,78.066 435,86 C434.537,102.3827 435.333,120.8523 436.221,134.9832 " fill="none" id="Ass6&lt;-Ass5" style="stroke: #A80036; stroke-width: 1.0;"/><polygon fill="#A80036" points="436.402,56.207,431.8792,64.956,436.1077,61.1983,439.8654,65.4268,436.402,56.207" style="stroke: #A80036; stroke-width: 1.0;"/><text fill="#000000" font-family="sans-serif" font-size="13" lengthAdjust="spacingAndGlyphs" textLength="65" x="436" y="101.8979">多重行依赖</text><text fill="#000000" font-family="sans-serif" font-size="13" lengthAdjust="spacingAndGlyphs" textLength="20" x="413.72" y="78.7557">1..*</text><text fill="#000000" font-family="sans-serif" font-size="13" lengthAdjust="spacingAndGlyphs" textLength="22" x="410.7866" y="124.2436">0..1</text><!--MD5=[ebab9bbf6a70946dfc7f23b1f3a7d81e]
reverse link Agg2 to Agg1--><path d="M545,69.291 C545,90.458 545,116.5227 545,134.9058 " fill="none" id="Agg2&lt;-Agg1" style="stroke: #A80036; stroke-width: 1.0;"/><polygon fill="#FFFFFF" points="545,56.219,541,62.219,545,68.219,549,62.219,545,56.219" style="stroke: #A80036; stroke-width: 1.0;"/><text fill="#000000" font-family="sans-serif" font-size="13" lengthAdjust="spacingAndGlyphs" textLength="26" x="546" y="101.8979">聚合</text><!--MD5=[7091eded88a3cca23d2e0ec369caf249]
reverse link Com2 to Com1--><path d="M643,69.291 C643,90.458 643,116.5227 643,134.9058 " fill="none" id="Com2&lt;-Com1" style="stroke: #A80036; stroke-width: 1.0;"/><polygon fill="#A80036" points="643,56.219,639,62.219,643,68.219,647,62.219,643,56.219" style="stroke: #A80036; stroke-width: 1.0;"/><text fill="#000000" font-family="sans-serif" font-size="13" lengthAdjust="spacingAndGlyphs" textLength="26" x="644" y="101.8979">组合</text><!--MD5=[d9bb562cf3bf2a48b8dbb840ff7324d2]
reverse link Parent to Sub--><path d="M745,76.406 C745,96.0752 745,118.5361 745,134.9058 " fill="none" id="Parent&lt;-Sub" style="stroke: #A80036; stroke-width: 1.0;"/><polygon fill="none" points="738,76.219,745,56.219,752,76.219,738,76.219" style="stroke: #A80036; stroke-width: 1.0;"/><text fill="#000000" font-family="sans-serif" font-size="13" lengthAdjust="spacingAndGlyphs" textLength="26" x="746" y="101.8979">继承</text><!--MD5=[39abbbcdccb51dbec183550881bf058b]
@startuml
class Impl
interface Interface

Interface <|.. Impl:实现

class Dep1
class Dep2
Dep2 <.. Dep1:依赖

class Ass1
class Ass2
Ass2 <- - Ass1:单向依赖

class Ass3
class Ass4
Ass4 - - Ass3:双向依赖

class Ass5
class Ass6
Ass6 "1..*"<- -"0..1" Ass5:多重行依赖

class Agg1
class Agg2
Agg2 o- - Agg1:聚合

class Com1
class Com2
Com2 *- - Com1:组合

class Parent
class Sub
Parent <|- - Sub:继承

@enduml

PlantUML version 1.2020.10(Sun May 17 17:35:57 CST 2020)
(GPL source distribution)
Java Runtime: Java(TM) SE Runtime Environment
JVM: Java HotSpot(TM) Client VM
Java Version: 1.8.0_191-b12
Operating System: Windows 10
Default Encoding: GBK
Language: zh
Country: CN
--></g></svg>